<?xml version="1.0" encoding="UTF-8"?>
<svg width="32" height="32" viewBox="0 0 32 32" fill="none" xmlns="http://www.w3.org/2000/svg">
  <rect width="32" height="32" rx="6" fill="#0A5CD9"/>
  <path d="M14 8C10.6863 8 8 10.6863 8 14C8 17.3137 10.6863 20 14 20C15.5913 20 17.0214 19.3685 18.0002 18.3197L19.2929 19.2929C19.6834 19.6834 20.3166 19.6834 20.7071 19.2929C21.0976 18.9024 21.0976 18.2692 20.7071 17.8787L19.3197 16.0002C20.3685 15.0214 21 13.5913 21 12C21 8.68629 17.3137 6 14 6V8ZM14 10C16.2091 10 18 11.7909 18 14C18 16.2091 16.2091 18 14 18C11.7909 18 10 16.2091 10 14C10 11.7909 11.7909 10 14 10Z" fill="white"/>
  <path d="M19.2929 19.2929L22.2929 22.2929C22.6834 22.6834 23.3166 22.6834 23.7071 22.2929C24.0976 21.9024 24.0976 21.2692 23.7071 20.8787L20.7071 17.8787" stroke="white" stroke-width="2" stroke-linecap="round"/>
</svg> 